<?xml version="1.0" encoding="iso-8859-1"?>
<!-- Generator: Adobe Illustrator 19.0.0, SVG Export Plug-In . SVG Version: 6.00 Build 0)  -->
<svg version="1.1" id="Layer_1" xmlns="http://www.w3.org/2000/svg" xmlns:xlink="http://www.w3.org/1999/xlink" x="0px" y="0px"
	 viewBox="0 0 512 512" style="enable-background:new 0 0 512 512;" xml:space="preserve">
<g>
	<g>
		<g>
			<path d="M486.639,424.96c-51.2-26.948-90.351-41.899-125.124-47.804l3.78-5.205c1.485-2.039,1.997-4.642,1.374-7.091
				l-7.919-31.676c2.901-4.087,5.632-8.311,8.201-12.646c31.889-10.82,48.051-29.124,50.714-56.175
				c14.507-0.879,26.069-12.843,26.069-27.563v-64c0-14.626-11.418-26.513-25.779-27.537C415.94,95.693,394.129,0,256,0
				c-30.711,0-59.827,6.263-84.659,18.014C153.941,6.665,133.214,0,110.933,0C49.766,0,0,49.758,0,110.933
				c0,46.054,28.22,85.623,68.267,102.374V236.8c0,15.292,12.442,27.733,27.733,27.733h12.8c4.975,0,9.583-1.425,13.619-3.729
				c4.873,25.66,15.616,50.927,30.822,72.38l-7.919,31.676c-0.614,2.449-0.111,5.052,1.374,7.091l3.789,5.205
				c-34.773,5.905-73.924,20.855-125.133,47.804C9.711,433.195,0,449.297,0,466.987v36.48C0,508.177,3.814,512,8.533,512h204.8
				h0.009h3.191h0.009l78.541-0.077c0.136,0.009,0.256,0.077,0.393,0.077h207.991c4.71,0,8.533-3.823,8.533-8.533v-36.48
				C512,449.297,502.281,433.195,486.639,424.96z M378.726,296.926c4.847-11.708,8.516-23.868,10.846-36.122
				c3.32,1.894,7.031,3.089,11.025,3.465C399.121,276.48,393.694,287.932,378.726,296.926z M256,17.067
				c119.603,0,142.78,76.792,144.879,128.23c-3.712,0.316-7.194,1.34-10.351,2.978C379.793,83.627,323.635,34.133,256,34.133
				c-19.217,0-37.709,4.181-55.219,11.998c-4.224-5.845-9.003-11.255-14.268-16.171C207.3,21.538,231.023,17.067,256,17.067z
				 M55.049,153.6c-5.214,0-9.754-3.157-11.571-8.038c-1.818-4.881-0.435-10.24,3.507-13.645l38.656-33.331
				c4.105-4.139,4.002-10.069,2.364-14.089c-0.717-1.775-3.627-7.578-10.923-7.697c-9.702,0-17.348,7.654-17.348,17.067
				c0,4.71-3.823,8.533-8.533,8.533c-4.719,0-8.533-3.823-8.533-8.533c0-18.825,15.309-34.133,34.133-34.133
				c12.382,0.196,22.519,7.228,27.034,18.355c4.625,11.426,2.039,24.371-6.588,32.99l-29.491,25.455H102.4
				c4.71,0,8.533,3.823,8.533,8.533s-3.823,8.533-8.533,8.533H55.049z M119.467,230.4v6.4c0,5.88-4.787,10.667-10.667,10.667H96
				c-5.888,0-10.667-4.787-10.667-10.667v-17.997c0.23,0.06,0.469,0.085,0.7,0.145c1.775,0.41,3.558,0.768,5.359,1.084
				c2.065,0.384,4.147,0.691,6.221,0.956c0.939,0.111,1.86,0.256,2.799,0.341c6.195,0.614,12.476,0.725,19.055,0.162V230.4z
				 M119.467,128c-3.311,0-6.332-1.92-7.731-4.915c-1.408-2.995-0.947-6.536,1.169-9.079l42.667-51.2
				c2.313-2.765,6.101-3.772,9.463-2.569c3.379,1.229,5.632,4.437,5.632,8.03v42.667h8.533c4.71,0,8.533,3.823,8.533,8.533
				S183.91,128,179.2,128h-8.533v17.067c0,4.71-3.823,8.533-8.533,8.533c-4.719,0-8.533-3.823-8.533-8.533V128H119.467z
				 M162.842,365.133l3.831-15.309c0.034,0.043,0.068,0.068,0.102,0.102c20.617,22.409,46.831,38.195,76.39,41.788
				c0.017,0,0.034,0.009,0.06,0.009l-3.866,8.687l-19.294,43.409L162.842,365.133z M256,405.018l21.001,47.249H235L256,405.018z
				 M223.744,494.925l5.111-25.591h54.281l5.12,25.532L223.744,494.925z M291.925,443.819l-19.294-43.409l-3.857-8.687
				c0.017,0,0.034-0.009,0.051-0.009c29.559-3.592,55.782-19.379,76.39-41.788c0.034-0.034,0.077-0.06,0.102-0.102l3.84,15.309
				L291.925,443.819z M264.533,315.733c-4.719,0-8.533,3.823-8.533,8.533c0,4.71,3.814,8.533,8.533,8.533
				c31.181,0,57.028-1.997,78.234-6.042c-0.324,0.427-0.674,0.828-1.007,1.254c-0.299,0.282-0.691,0.469-0.947,0.802
				c-2.927,3.746-5.965,7.287-9.088,10.607c-0.026,0.026-0.051,0.051-0.077,0.077c-2.057,2.185-4.215,4.13-6.349,6.127
				c-20.864,18.816-45.645,29.841-69.299,29.841c-23.663,0-48.444-11.025-69.299-29.833c-2.142-2.005-4.301-3.951-6.357-6.144
				c-0.026-0.017-0.043-0.043-0.068-0.06c-3.123-3.328-6.161-6.869-9.097-10.615c-0.256-0.333-0.64-0.521-0.947-0.802
				c-20.105-25.37-33.698-59.187-33.698-97.613v-11.614c0.265-0.068,0.512-0.154,0.777-0.222c2.799-0.691,5.581-1.434,8.303-2.33
				c0.393-0.128,0.768-0.29,1.169-0.427c2.978-1.024,5.922-2.133,8.789-3.396c2.705-1.186,5.367-2.458,7.953-3.84
				c0.393-0.213,0.759-0.452,1.152-0.674c2.756-1.51,5.427-3.14,8.021-4.872c0.205-0.137,0.41-0.29,0.614-0.427
				c2.807-1.903,5.513-3.934,8.124-6.084c0.009-0.009,0.026-0.017,0.043-0.034c13.73-11.281,24.585-25.737,31.565-42.223
				c0.085-0.205,0.162-0.427,0.256-0.631c1.186-2.867,2.261-5.786,3.209-8.764c0.239-0.725,0.452-1.459,0.674-2.193
				c0.742-2.509,1.399-5.06,1.971-7.646c0.213-0.973,0.444-1.937,0.631-2.927c0.478-2.5,0.853-5.043,1.161-7.603
				c0.119-0.981,0.282-1.946,0.384-2.935c0.324-3.499,0.538-7.04,0.538-10.624c0-4.198-0.282-8.329-0.742-12.407
				c-0.111-0.964-0.307-1.911-0.435-2.867c-0.452-3.226-1.007-6.409-1.724-9.532c-0.213-0.947-0.478-1.869-0.725-2.807
				c-0.828-3.226-1.792-6.391-2.901-9.506c-0.265-0.751-0.538-1.502-0.828-2.253c-1.331-3.49-2.825-6.895-4.489-10.206
				c-0.119-0.247-0.205-0.503-0.324-0.751C224.41,54.357,239.949,51.2,256,51.2c65.869,0,119.467,53.589,119.467,119.467v2.133v57.6
				c0,28.339-7.467,54.127-19.379,75.938C335.71,312.218,306.449,315.733,264.533,315.733z"/>
			<polygon points="153.597,110.934 153.597,91.837 137.683,110.934 			"/>
		</g>
	</g>
</g>
<g>
</g>
<g>
</g>
<g>
</g>
<g>
</g>
<g>
</g>
<g>
</g>
<g>
</g>
<g>
</g>
<g>
</g>
<g>
</g>
<g>
</g>
<g>
</g>
<g>
</g>
<g>
</g>
<g>
</g>
</svg>
