<svg id="Flat" height="512" viewBox="0 0 512 512" width="512" xmlns="http://www.w3.org/2000/svg"><path d="m480 304v16l-88 32-81.55-1.94-161.92-3.86-92.53-2.2-32-32s-3.49-39.2 0-72c.48-4.56 1.22-9.86 2.15-15.62 1.64-10.23 3.86-21.92 6.26-33.55 6.62-32 14.6-63.52 15.59-62.83l116.79-20.61a24 24 0 0 1 26.45 14.72l1.9 4.75 19.93 49.82 2.93 7.32s39.7 24.43 79.47 44.98c16.29 8.42 32.59 16.19 46.18 21.37a118.94 118.94 0 0 0 18.35 5.65c2.55.51 5.2 1.02 7.93 1.53 24.82 4.63 55.84 9.09 75.8 11.8a38.861 38.861 0 0 1 29.49 21.1z" fill="#e4e4e3"/><g fill="#ed5749"><path d="m480 304v16l-88 32-81.55-1.94-46.45-6.06 56-53.4s46.82 2.46 72 0c17.62-1.72 43.49-12.49 58.95-19.57a38.832 38.832 0 0 1 22.27 19.4z"/><path d="m148.53 346.2-92.53-2.2-32-32s-3.49-39.2 0-72c.48-4.56 1.22-9.86 2.15-15.62l85.85 39.62z"/><path d="m341.65 250.35-29.65 29.65s-40-8-88-32-80-72-80-72l49.14-49.14 19.93 49.82 2.93 7.32s4.87 3 12.91 7.77c4.03 2.4 8.85 5.24 14.26 8.38 4.94 2.87 10.38 5.98 16.13 9.23 4.66 2.63 9.54 5.35 14.55 8.09 22.77 12.46 48.13 25.39 67.8 32.88z"/></g><path d="m488 328c-32 16-96 48-192 48-74.805 0-198.185-4.857-249.018-7a24 24 0 0 1 -22.982-23.981v-33.019s176 16 272 16 152-8 184-24z" fill="#cacac9"/><path d="m213.07 176.68c-18.28 13.83-55.92 39.32-85.07 39.32a110.761 110.761 0 0 1 -15.88-1.31c-26.84-3.98-60.18-16.1-79.71-23.86 1.51-7.28 3.08-14.53 4.63-21.39 5.26-23.28 10.2-41.97 10.96-41.44l116.79-20.61a24 24 0 0 1 26.45 14.72l1.22 3.05 7.89 19.73z" fill="#4e4e4e"/><path d="m200.35 144.89-88.23 69.8c-26.84-3.98-60.18-16.1-79.71-23.86 1.51-7.28 3.08-14.53 4.63-21.39l155.42-44.28z" fill="#ed5749"/><path d="m367.93 257.53-64.58 70.45-54.8-.94c12.21-13.19 33.8-38.1 39.45-55.04 4.78-14.32 6.7-31.5 7.47-43.02 11.12 5.75 22.25 11.2 32.52 15.71 4.77 2.11 9.35 4.02 13.66 5.66.82.31 1.62.62 2.42.9a110.027 110.027 0 0 0 15.93 4.75c2.55.51 5.2 1.02 7.93 1.53z" fill="#e5493d"/><path d="m243.17 200.15-21.51 21.51-11.32-11.32 18.57-18.57c4.03 2.4 8.85 5.24 14.26 8.38z" fill="#4e4e4e"/><path d="m273.85 217.47-20.19 20.19-11.32-11.32 16.96-16.96c4.66 2.63 9.54 5.35 14.55 8.09z" fill="#4e4e4e"/><path d="m344.07 251.25-18.41 18.41-11.32-11.32 13.65-13.65c4.77 2.11 9.35 4.02 13.66 5.66.82.31 1.62.62 2.42.9z" fill="#4e4e4e"/></svg>